{"glyphs":{":":{"x_min":0,"x_max":246,"ha":246,"o":"m 144 537 q 182 537 212 463 q 241 389 241 354 q 241 319 228 302 q 216 286 192 286 q 169 286 130 346 q 92 405 92 436 q 92 468 110 502 q 127 537 144 537 z m 99 241 q 137 241 167 167 q 197 93 197 47 q 197 24 184 7 q 171 -10 148 -10 q 124 -10 86 50 q 47 109 47 140 q 47 172 64 206 q 82 241 99 241 z"},"$":{"x_min":0,"x_max":592,"ha":592,"o":"m 210 128 q 241 255 252 308 q 174 360 130 403 q 86 446 86 486 q 86 525 96 560 q 105 596 118 613 q 148 649 220 685 q 292 721 360 740 q 399 844 429 844 q 462 842 460 788 q 460 766 454 743 q 479 727 495 688 q 511 650 511 619 q 511 588 490 588 q 483 588 468 593 q 453 598 440 598 q 426 598 412 596 q 382 490 358 401 q 532 283 533 174 q 534 95 446 45 q 358 -5 251 -14 q 228 -88 209 -88 q 196 -87 186 -74 q 175 -60 176 -51 q 176 -42 180 -12 q 113 1 72 49 q 31 97 31 154 q 31 212 58 212 q 88 212 119 170 q 131 154 153 141 q 175 128 201 128 z m 218 506 q 218 493 283 450 q 289 477 309 565 q 218 526 218 506 z m 398 183 q 398 210 322 262 q 301 184 289 132 q 398 143 398 183 z"},"?":{"x_min":0,"x_max":608,"ha":608,"o":"m 281 1 q 251 1 214 38 q 177 75 177 102 q 177 128 200 154 q 223 181 246 181 q 269 181 300 127 q 330 73 330 46 q 330 33 314 17 q 297 1 281 1 z m 573 645 q 573 601 548 558 q 523 514 491 485 q 398 401 375 353 q 347 291 338 275 q 322 246 302 246 q 266 246 266 341 q 266 377 284 412 q 302 447 328 474 q 354 500 380 525 q 442 585 442 628 q 442 644 430 654 q 418 663 398 663 q 378 663 364 650 q 349 638 349 614 q 349 590 334 583 q 310 571 298 571 q 287 571 258 602 q 230 632 230 650 q 230 709 286 756 q 341 802 410 802 q 480 802 526 760 q 573 718 573 645 z"},"<":{"x_min":0,"x_max":475,"ha":475,"o":"m 435 606 q 460 606 480 576 q 501 546 501 526 q 501 507 475 494 q 395 457 284 387 q 172 317 172 298 q 172 279 212 247 q 251 215 299 186 q 426 107 426 76 q 426 46 380 46 q 335 46 247 86 q 159 126 84 183 q 10 240 10 280 q 10 300 19 334 q 28 368 40 378 q 104 436 240 521 q 377 606 435 606 z"},"'":{"x_min":0,"x_max":220,"ha":220,"o":"m 149 867 q 149 882 166 882 q 182 882 220 858 q 258 833 258 823 q 258 802 244 729 q 231 656 208 588 q 185 520 167 528 q 155 528 137 544 q 119 559 119 574 q 119 577 134 684 q 149 790 149 867 z"},"=":{"x_min":0,"x_max":672,"ha":672,"o":"m 482 313 q 589 313 589 282 q 589 252 521 226 q 453 200 336 185 q 220 170 120 170 q 102 170 82 202 q 62 234 62 255 q 62 271 240 292 q 419 313 482 313 z m 416 488 q 517 488 569 480 q 621 471 621 444 q 621 398 394 377 q 238 362 162 362 q 144 362 124 394 q 104 426 104 447 q 104 488 416 488 z"},"a":{"x_min":0,"x_max":510,"ha":510,"o":"m 450 296 q 468 280 468 267 q 468 254 456 213 q 444 172 440 150 q 436 127 434 114 q 431 101 430 94 q 429 86 426 75 q 424 64 422 58 q 421 51 418 42 q 416 34 413 30 q 410 25 406 20 q 400 12 386 12 q 372 12 352 40 q 331 68 321 108 q 227 12 163 12 q 120 12 70 60 q 20 107 20 154 q 20 202 63 290 q 106 378 180 453 q 255 528 328 528 q 370 528 425 479 q 480 430 480 390 q 480 349 450 296 z m 159 138 q 199 138 266 192 q 332 247 348 330 q 349 342 365 344 q 362 401 346 401 q 306 401 256 349 q 207 297 176 238 q 144 179 144 151 q 144 143 146 140 q 149 138 159 138 z"},"L":{"x_min":0,"x_max":546,"ha":546,"o":"m 218 760 q 243 760 279 727 q 315 694 315 659 q 315 563 216 287 q 182 190 182 152 q 182 147 184 146 q 186 145 221 145 q 256 145 318 156 q 379 166 418 176 q 456 186 463 186 q 488 186 488 154 q 488 91 392 52 q 297 14 171 14 q 122 14 82 50 q 41 87 41 131 q 41 175 115 416 q 189 656 189 727 q 189 760 218 760 z"},"3":{"x_min":0,"x_max":547,"ha":547,"o":"m 153 355 l 153 359 q 153 371 164 379 q 177 395 215 423 q 253 451 286 476 q 320 500 347 534 q 374 568 374 600 q 374 612 365 612 q 332 612 271 580 q 210 547 193 547 q 176 547 139 582 q 102 618 102 635 q 102 663 149 690 q 196 716 256 730 q 317 745 363 745 q 429 745 478 697 q 526 649 526 596 q 526 543 482 486 q 437 430 371 385 q 511 354 511 258 q 511 197 440 138 q 370 80 270 46 q 170 12 81 12 q -27 12 -27 59 q -27 85 153 138 q 220 157 276 190 q 333 223 333 258 q 333 277 313 288 q 293 298 268 301 q 192 310 169 328 q 153 338 153 355 z"},";":{"x_min":0,"x_max":306,"ha":306,"o":"m 222 26 q 222 -53 161 -136 q 100 -218 51 -218 q 21 -218 21 -197 q 21 -187 42 -158 q 105 -69 105 -23 q 105 8 70 29 q 34 50 34 70 q 34 91 62 120 q 91 149 125 149 q 159 149 190 110 q 222 71 222 26 z m 223 286 q 196 286 158 345 q 120 404 120 436 q 120 468 137 502 q 154 537 171 537 q 198 537 222 497 q 245 457 257 413 q 269 369 269 344 q 269 320 256 303 q 243 286 223 286 z"},"J":{"x_min":0,"x_max":486,"ha":486,"o":"m 13 206 q 13 233 18 244 q 24 255 38 255 q 53 255 77 227 q 101 199 132 171 q 162 143 192 143 q 215 143 238 207 q 261 271 287 372 q 313 472 320 506 q 336 585 343 602 q 316 596 254 588 q 191 579 170 579 q 149 579 136 592 q 123 605 123 623 q 123 659 200 688 q 276 717 352 728 q 429 740 458 740 q 514 740 514 704 q 514 689 478 579 q 442 469 434 435 q 380 206 353 139 q 311 34 245 17 q 229 13 213 13 q 142 13 78 82 q 13 150 13 206 z"},"V":{"x_min":0,"x_max":532,"ha":532,"o":"m 512 745 q 540 745 568 724 q 597 704 597 685 q 597 666 590 643 q 582 620 566 586 q 549 551 532 518 q 516 486 489 434 q 462 381 442 340 q 422 299 398 243 q 373 187 357 152 q 341 116 323 82 q 288 14 255 14 q 240 14 214 36 q 187 58 178 80 q 149 157 101 401 q 53 645 53 695 q 53 745 80 745 q 114 745 150 716 q 186 687 206 639 q 214 619 222 554 q 229 490 240 394 q 250 299 262 231 q 363 505 422 625 q 480 745 512 745 z"},"\"":{"x_min":0,"x_max":484,"ha":484,"o":"m 344 867 q 344 882 360 882 q 377 882 410 858 q 442 833 442 823 q 442 763 423 646 q 404 528 375 528 q 363 528 344 544 q 326 559 326 574 q 326 576 335 680 q 344 785 344 867 z m 135 867 q 135 882 151 882 q 167 882 200 858 q 232 833 232 823 q 232 762 214 645 q 195 528 165 528 q 153 528 135 544 q 117 559 117 574 q 117 576 126 680 q 135 785 135 867 z"},"7":{"x_min":0,"x_max":472,"ha":472,"o":"m 334 608 l 175 594 q 150 594 118 637 q 85 680 85 703 q 85 741 300 741 q 420 741 436 726 q 459 705 480 664 q 500 622 500 587 q 500 567 478 527 q 457 487 445 466 q 433 444 410 406 q 388 369 370 338 q 351 306 319 246 q 287 187 266 148 q 246 110 224 73 q 182 0 160 0 q 137 0 114 28 q 92 56 92 88 q 92 119 136 200 q 179 281 230 360 q 369 571 369 598 q 369 608 334 608 z"},"S":{"x_min":0,"x_max":552,"ha":552,"o":"m 499 220 q 499 135 418 74 q 337 13 233 13 q 129 13 66 64 q 2 116 2 171 q 2 226 33 226 q 57 226 83 202 q 109 178 142 154 q 174 130 215 130 q 256 130 308 164 q 360 198 360 221 q 360 244 304 298 q 247 352 190 410 q 134 467 134 498 q 134 530 146 567 q 157 604 174 618 q 228 671 314 710 q 399 748 464 748 q 502 748 527 716 q 552 683 552 648 q 552 634 530 626 q 507 617 464 608 q 422 599 378 582 q 276 544 276 518 q 276 506 311 474 q 346 443 388 408 q 429 374 464 322 q 499 269 499 220 z"},"}":{"x_min":0,"x_max":626,"ha":626,"o":"m 379 395 l 444 399 q 476 399 476 383 q 476 345 433 321 q 385 288 375 138 q 371 79 361 22 q 351 -34 317 -71 q 283 -108 220 -108 q 156 -108 113 -74 q 70 -41 70 -1 q 70 27 91 27 q 109 27 134 8 q 160 -10 203 -10 q 233 -10 240 44 q 246 97 252 182 q 258 267 284 315 q 216 349 216 416 q 216 449 245 492 q 274 535 308 570 q 343 604 372 644 q 401 684 401 712 q 401 740 382 756 q 364 772 336 772 q 309 772 290 758 q 272 745 261 730 q 231 687 212 687 q 194 687 169 719 q 144 751 144 770 q 144 804 206 842 q 268 880 336 880 q 405 880 473 826 q 541 771 541 724 q 541 677 510 630 q 479 583 442 551 q 343 465 343 427 q 343 412 353 404 q 363 395 379 395 z"},"Z":{"x_min":0,"x_max":646,"ha":646,"o":"m 210 166 q 210 151 225 151 q 274 151 362 164 q 450 176 493 176 q 560 176 560 141 q 560 110 491 79 q 422 48 332 30 q 243 13 173 13 q 124 13 86 65 q 49 117 49 158 q 49 199 110 264 q 170 328 242 383 q 314 438 374 487 q 435 536 435 550 q 435 596 312 596 q 270 596 240 590 q 211 585 202 585 q 175 585 147 622 q 119 659 119 685 q 119 711 178 724 q 210 731 259 731 q 367 731 479 690 q 511 679 537 632 q 563 585 563 550 q 563 514 526 464 q 490 414 438 368 q 386 322 334 280 q 283 239 246 208 q 210 177 210 166 z"},"x":{"x_min":0,"x_max":474,"ha":474,"o":"m 404 49 q 404 12 371 12 q 317 12 229 144 q 115 12 76 12 q 49 12 24 38 q 0 65 0 85 q 0 90 21 110 q 104 189 160 259 q 117 337 87 408 q 57 479 57 494 q 57 510 58 515 q 61 528 76 528 q 118 528 164 512 q 211 495 211 473 q 211 438 241 371 q 302 457 340 493 q 379 529 404 529 q 428 529 458 500 q 489 471 489 448 q 489 437 480 427 q 471 417 453 404 q 435 390 418 373 q 402 356 309 242 l 338 191 q 404 75 404 49 z"},")":{"x_min":0,"x_max":530,"ha":530,"o":"m 455 616 q 455 491 416 373 q 378 255 320 172 q 263 88 198 24 q 133 -41 79 -73 q 25 -105 2 -105 q -38 -105 -38 -81 q -38 -52 54 32 q 141 114 224 240 q 263 300 289 383 q 315 466 315 536 q 315 607 299 646 q 283 685 260 706 q 238 727 215 743 q 192 759 176 776 q 160 794 160 824 q 160 854 182 874 q 203 893 242 893 q 322 893 388 806 q 455 718 455 616 z"},"&":{"x_min":0,"x_max":786,"ha":786,"o":"m 491 157 q 555 111 614 111 q 674 111 694 104 q 714 98 714 79 q 714 46 681 28 q 648 9 588 9 q 493 9 395 96 q 230 -3 148 -3 q 101 -3 52 49 q 3 101 3 139 q 3 172 62 228 q 112 276 154 312 q 197 347 202 351 q 206 355 210 358 q 166 458 164 538 q 163 617 225 672 q 287 726 381 726 q 462 726 496 651 q 513 612 513 575 q 513 479 354 331 q 371 295 400 252 q 435 275 510 327 q 644 421 660 421 q 709 421 709 367 q 709 340 646 281 q 584 222 491 157 z m 373 552 q 371 605 339 605 q 322 605 312 584 q 292 545 312 451 q 373 514 373 552 z m 146 117 q 185 117 307 192 q 292 211 266 251 q 162 161 151 146 q 140 130 140 124 q 140 117 146 117 z"},"_":{"x_min":0,"x_max":619,"ha":619,"o":"m 590 29 q 590 2 522 -9 q 455 -20 358 -26 q 261 -31 236 -33 q 212 -35 162 -40 q 113 -46 83 -46 q 64 -46 44 -18 q 24 10 24 38 q 24 80 311 80 q 496 80 551 62 q 590 51 590 29 z"},"v":{"x_min":0,"x_max":422,"ha":422,"o":"m 375 528 q 401 528 426 510 q 450 491 450 471 q 450 435 390 304 q 331 173 280 93 q 230 13 202 13 q 187 13 158 33 q 130 53 122 73 q 98 131 64 288 q 30 444 30 486 q 30 528 58 528 q 92 528 128 501 q 188 455 195 378 q 198 342 200 290 q 202 237 209 199 q 233 245 268 336 q 303 426 328 477 q 354 528 375 528 z"},"O":{"x_min":0,"x_max":619,"ha":619,"o":"m 179 230 q 179 187 191 160 q 203 134 221 134 q 263 134 321 186 q 379 237 422 316 q 465 394 465 466 q 465 538 447 577 q 429 616 397 616 q 365 616 314 558 q 262 501 220 408 q 179 315 179 230 z m 222 13 q 148 13 90 86 q 32 158 32 230 q 32 322 67 418 q 102 515 154 586 q 207 656 270 702 q 333 747 386 747 q 483 747 545 664 q 607 582 607 479 q 607 376 555 270 q 503 165 412 89 q 320 13 222 13 z"},"(":{"x_min":0,"x_max":478,"ha":478,"o":"m 465 -77 q 465 -100 432 -100 q 345 -100 262 -52 q 180 -4 126 84 q 73 172 73 273 q 73 374 108 472 q 142 569 194 642 q 246 715 306 772 q 366 829 419 858 q 472 888 503 888 q 534 888 555 869 q 576 850 576 828 q 576 806 549 779 q 522 752 482 723 q 441 694 394 648 q 346 602 306 550 q 265 499 238 422 q 211 345 211 270 q 211 194 237 143 q 263 92 300 62 q 338 32 376 8 q 413 -15 439 -36 q 465 -57 465 -77 z"},"C":{"x_min":0,"x_max":617,"ha":617,"o":"m 439 747 q 467 747 500 698 q 533 648 533 616 q 533 584 520 584 q 514 584 494 588 q 475 592 461 592 q 411 592 344 528 q 277 464 230 375 q 182 286 182 221 q 182 189 192 174 q 202 160 228 160 q 297 160 368 181 q 439 202 485 224 q 531 245 538 245 q 544 245 550 234 q 557 222 557 206 q 557 172 503 126 q 449 79 372 46 q 296 13 234 13 q 172 13 104 88 q 35 163 35 231 q 35 326 96 448 q 157 569 254 658 q 350 747 439 747 z"},"W":{"x_min":0,"x_max":785,"ha":785,"o":"m 153 13 q 133 13 96 44 q 58 76 58 107 q 58 180 79 359 q 100 538 100 703 q 100 745 126 745 q 162 745 212 705 q 263 665 263 625 q 263 611 230 454 q 197 298 192 203 q 240 300 306 365 q 371 430 413 430 q 443 430 452 297 q 456 247 468 206 q 480 164 501 164 q 540 164 570 248 q 601 331 601 420 q 601 613 495 613 q 464 613 438 645 q 411 677 411 702 q 411 747 466 747 q 540 747 596 720 q 651 692 682 644 q 744 549 744 410 q 744 316 711 224 q 678 133 620 73 q 561 13 495 13 q 373 13 356 220 l 325 176 q 215 13 153 13 z"},"A":{"x_min":0,"x_max":630,"ha":630,"o":"m 509 388 q 549 388 566 380 q 584 373 584 353 q 584 326 497 298 q 499 222 499 152 q 499 83 488 48 q 477 14 453 14 q 429 14 416 38 q 402 63 394 119 q 385 175 376 267 q 274 244 229 230 q 151 14 125 14 q 104 14 70 42 q 35 70 35 100 q 35 117 74 206 q 57 217 44 238 q 32 258 32 277 q 32 310 131 340 q 139 360 148 386 q 156 411 190 505 q 225 599 245 662 q 254 692 308 718 q 361 744 391 744 q 426 744 454 647 q 481 550 492 388 z m 278 371 q 308 375 365 381 q 362 410 356 480 q 349 550 346 581 q 329 525 278 371 z"},"f":{"x_min":0,"x_max":435,"ha":435,"o":"m 328 592 q 309 528 290 443 q 366 447 404 447 q 443 447 462 436 q 481 424 481 408 q 481 377 425 360 q 369 343 263 327 q 213 118 193 66 q 173 13 149 13 q 130 13 104 44 q 79 76 79 92 q 79 108 86 130 q 117 217 133 298 q 103 290 80 290 q 56 290 33 312 q 10 333 10 364 q 10 400 154 426 q 183 618 235 704 q 287 791 385 791 q 432 791 471 745 q 510 699 510 636 q 510 595 497 572 q 484 548 463 548 q 442 548 430 567 q 417 586 412 608 q 408 631 399 650 q 390 669 378 669 q 365 669 352 651 q 340 633 328 592 z"},"Q":{"x_min":0,"x_max":659,"ha":659,"o":"m 470 94 q 478 71 491 36 q 504 1 511 -18 q 518 -38 526 -62 q 540 -107 540 -130 q 540 -154 532 -163 q 524 -172 503 -172 q 443 -172 364 29 q 321 13 279 13 q 201 13 116 88 q 32 162 32 230 q 32 322 67 418 q 102 515 154 586 q 207 656 270 702 q 333 747 386 747 q 486 747 565 662 q 644 578 644 478 q 644 377 596 270 q 548 164 470 94 z m 398 616 l 395 616 q 377 602 377 587 q 377 421 423 246 q 502 358 502 461 q 502 533 468 574 q 433 616 398 616 z m 254 462 l 254 474 q 179 347 179 230 q 179 191 216 162 q 254 134 276 134 q 298 134 323 148 q 293 243 274 333 q 254 423 254 462 z"},"w":{"x_min":0,"x_max":710,"ha":710,"o":"m 472 13 q 458 13 430 33 q 402 53 390 78 q 369 119 369 318 q 326 178 271 96 q 216 13 182 13 q 167 13 138 33 q 110 53 102 73 q 80 127 60 279 q 40 431 40 487 q 40 528 68 528 q 106 528 146 482 q 186 436 186 410 q 186 265 189 179 q 229 240 262 331 q 294 422 314 475 q 334 528 356 528 q 400 528 443 486 q 486 443 486 399 q 486 379 480 316 q 473 253 473 221 q 473 189 477 168 q 510 201 534 265 q 559 329 570 386 q 598 528 626 528 q 653 528 686 509 q 720 490 720 469 q 720 448 686 327 q 652 206 580 110 q 507 13 472 13 z"},"-":{"x_min":0,"x_max":531,"ha":531,"o":"m 497 335 q 497 309 436 292 q 388 278 326 266 q 264 253 222 242 q 134 221 114 221 q 94 221 72 248 q 50 276 50 301 q 50 329 166 349 q 283 369 421 369 q 497 369 497 335 z"},"E":{"x_min":0,"x_max":551,"ha":551,"o":"m 248 433 q 301 433 362 438 q 423 444 438 444 q 452 444 460 437 q 469 430 469 420 q 469 376 386 350 q 303 324 209 320 q 170 199 170 167 q 170 150 187 150 q 301 150 422 180 q 463 191 469 191 q 488 191 488 164 q 488 128 435 94 q 382 60 302 40 q 222 20 145 20 q 99 20 62 54 q 25 89 25 136 q 25 182 76 369 q 128 556 131 651 q 130 654 130 663 q 130 677 134 685 q 145 713 195 720 q 245 728 375 728 q 591 728 591 680 q 591 649 538 637 q 502 629 439 622 q 342 611 266 590 q 266 522 242 433 z"},"s":{"x_min":0,"x_max":467,"ha":467,"o":"m 344 527 q 382 527 419 482 q 456 437 456 401 q 456 377 435 377 q 423 377 400 386 q 377 396 354 396 q 330 396 284 380 q 239 364 239 338 q 239 328 266 309 q 293 290 325 270 q 357 250 384 214 q 411 179 411 138 q 411 96 350 54 q 290 12 208 12 q 127 12 69 49 q 11 86 11 125 q 11 164 43 164 q 56 164 74 154 q 124 125 198 125 q 273 125 273 145 q 273 165 244 190 q 216 214 182 235 q 149 256 120 286 q 92 317 92 346 q 92 400 190 464 q 288 527 344 527 z"},">":{"x_min":0,"x_max":616,"ha":616,"o":"m 129 581 q 129 607 152 607 q 242 607 347 546 q 452 484 526 410 q 568 368 568 341 q 568 303 529 266 q 490 229 384 162 q 278 95 227 71 q 176 47 134 47 q 93 47 93 82 q 93 107 144 150 q 196 192 258 228 q 422 326 422 347 q 422 362 344 411 q 266 460 217 476 q 195 483 162 522 q 129 562 129 581 z"},"l":{"x_min":0,"x_max":266,"ha":266,"o":"m 229 374 q 146 12 113 12 q 91 12 58 48 q 26 83 26 106 q 26 108 53 210 q 80 312 108 472 q 135 633 135 779 q 135 808 166 808 q 190 808 228 764 q 266 720 266 680 q 266 640 254 538 q 242 435 229 374 z"},"8":{"x_min":0,"x_max":590,"ha":590,"o":"m 593 597 q 593 504 426 358 q 506 276 506 197 q 506 128 412 72 q 319 15 226 15 q 183 15 126 57 q 70 99 70 147 q 70 235 226 365 q 179 401 152 424 q 126 446 102 478 q 78 509 78 536 q 78 564 88 596 q 97 627 113 627 q 124 627 135 618 q 146 609 163 589 q 180 569 190 558 q 200 548 220 532 q 239 515 250 506 q 261 496 290 474 q 319 451 325 446 q 389 497 422 532 q 456 566 456 594 q 456 621 422 621 q 377 621 322 591 q 268 561 250 561 q 231 561 205 580 q 179 599 179 619 q 179 669 248 707 q 316 745 423 745 q 501 745 547 708 q 593 671 593 597 z m 366 221 q 366 245 330 279 q 236 206 218 180 q 209 169 209 162 q 209 154 222 144 q 234 134 239 134 q 276 134 321 160 q 366 186 366 221 z"},"\\":{"x_min":0,"x_max":600,"ha":600,"o":"m 463 -80 q 438 -80 284 293 q 247 385 202 488 q 158 591 142 630 q 115 699 115 730 q 115 761 153 809 q 191 857 211 857 q 229 857 234 842 q 258 769 342 560 q 426 350 484 198 q 541 46 541 18 q 541 -10 513 -45 q 485 -80 463 -80 z"},"e":{"x_min":0,"x_max":488,"ha":488,"o":"m 155 224 q 146 197 146 170 q 146 143 155 132 q 164 120 200 120 q 275 120 328 134 q 382 148 384 148 q 425 148 425 121 q 425 82 360 47 q 296 12 212 12 q 127 12 76 65 q 25 118 25 190 q 25 263 68 342 q 110 421 174 474 q 238 528 302 528 q 365 528 419 466 q 473 403 473 341 q 473 292 406 253 q 340 214 270 214 q 200 214 155 224 z m 194 310 q 203 309 220 309 q 357 309 357 357 q 357 367 336 386 q 315 405 296 405 q 278 405 249 378 q 220 352 194 310 z"},"b":{"x_min":0,"x_max":567,"ha":567,"o":"m 413 527 q 459 527 500 476 q 542 425 542 379 q 542 333 521 271 q 500 209 465 151 q 430 93 377 53 q 324 13 266 13 q 209 13 136 68 q 116 12 103 12 q 82 12 50 47 q 18 82 18 104 q 18 126 51 248 q 150 614 150 778 q 150 808 179 808 q 202 808 241 764 q 280 721 280 683 q 280 594 229 406 q 343 527 413 527 z m 251 128 q 306 128 364 214 q 421 300 421 383 q 421 389 418 390 q 416 392 405 392 q 350 392 288 326 q 225 260 177 161 q 219 128 251 128 z"},"%":{"x_min":0,"x_max":991,"ha":991,"o":"m 776 409 q 816 409 846 374 q 877 339 890 300 q 902 261 902 230 q 902 147 840 73 q 778 -1 696 -1 q 647 -1 614 54 q 580 110 580 176 q 580 241 640 325 q 701 409 776 409 z m 699 180 q 699 119 724 119 q 738 119 762 150 q 787 181 787 223 q 787 257 778 272 q 770 287 766 287 q 747 287 723 248 q 699 209 699 180 z m 756 794 q 777 794 800 752 q 824 710 818 685 q 811 660 791 630 q 771 600 745 566 q 631 419 551 310 q 369 69 332 29 q 295 -11 286 -9 q 264 -4 248 16 q 231 35 235 53 q 239 71 264 112 q 289 152 336 218 q 382 284 420 337 q 558 526 610 597 q 558 570 499 557 q 440 544 403 551 q 406 533 406 519 q 406 435 344 361 q 281 287 199 287 q 150 287 116 342 q 83 398 83 464 q 83 529 144 613 q 205 697 280 697 q 305 697 318 689 q 331 681 340 675 q 362 662 380 657 q 418 648 480 668 q 542 687 595 716 q 741 794 756 794 z m 203 468 q 203 407 228 407 q 242 407 266 438 q 291 470 291 512 q 291 547 282 562 q 273 576 269 576 q 251 576 227 536 q 203 497 203 468 z"},"m":{"x_min":0,"x_max":819,"ha":819,"o":"m 698 528 q 737 528 763 476 q 789 424 789 381 q 789 338 772 254 q 756 169 720 90 q 685 12 644 12 q 611 12 611 57 q 611 102 637 204 q 663 306 663 338 q 663 370 653 370 q 632 370 603 324 q 574 278 534 201 q 493 124 483 102 q 473 80 466 67 q 460 54 452 40 q 420 -13 367 40 q 340 67 340 89 q 340 93 356 166 q 373 238 373 331 q 373 370 364 370 q 352 370 336 346 q 320 322 287 259 q 254 196 230 155 q 146 12 102 12 q 80 12 48 49 q 15 86 15 106 q 15 125 38 200 q 60 274 66 358 q 73 442 78 489 q 84 536 102 536 q 140 536 176 504 q 211 473 211 447 q 211 388 168 241 q 238 408 286 467 q 337 528 384 528 q 410 528 448 480 q 487 432 487 390 q 487 349 486 318 q 517 396 580 462 q 643 528 698 528 z"},"#":{"x_min":0,"x_max":780,"ha":780,"o":"m 427 583 q 491 587 517 587 q 533 669 533 719 q 533 748 563 748 q 590 748 631 715 q 672 682 672 645 q 672 628 663 589 l 669 589 q 740 589 752 580 q 763 570 765 565 q 767 560 767 550 q 767 511 637 491 q 620 429 583 300 l 624 300 q 670 300 693 294 q 716 288 720 282 q 723 275 723 261 q 723 218 555 197 q 527 97 504 46 q 480 -4 455 -4 q 437 -4 426 22 q 414 47 413 81 q 406 96 426 183 q 350 174 310 167 q 285 77 268 36 q 252 -4 232 -4 q 210 -4 194 28 q 179 60 178 104 q 174 111 180 148 q 115 138 106 138 q 89 137 76 164 q 62 191 62 218 q 62 257 212 278 q 241 391 253 442 q 161 427 146 427 q 131 427 118 454 q 104 480 104 507 q 104 549 281 570 q 298 665 298 719 q 300 748 328 748 q 356 748 397 715 q 438 682 438 645 q 438 627 427 583 z m 345 291 q 408 297 452 297 q 478 400 494 475 q 469 472 394 462 q 383 421 345 291 z"},",":{"x_min":0,"x_max":262,"ha":262,"o":"m 221 19 q 221 -60 160 -142 q 99 -225 50 -225 q 20 -225 20 -204 q 20 -194 41 -164 q 104 -76 104 -30 q 104 -9 86 7 q 68 23 50 36 q 33 48 33 66 q 33 84 62 113 q 90 142 124 142 q 158 142 190 103 q 221 64 221 19 z"},"n":{"x_min":0,"x_max":554,"ha":554,"o":"m 393 528 q 445 528 484 482 q 524 435 524 382 q 524 297 496 204 q 469 112 436 62 q 404 12 370 12 q 337 12 337 59 q 337 95 370 204 q 395 294 395 333 q 395 372 385 372 q 372 372 360 359 q 347 346 339 336 q 331 326 320 310 q 310 295 302 282 q 295 270 284 250 q 272 231 265 218 q 258 206 247 186 q 154 12 101 12 q 80 12 48 48 q 16 85 16 102 q 16 113 30 150 q 45 186 52 206 q 58 225 62 247 q 67 269 70 294 q 73 320 74 334 q 76 348 78 378 q 87 508 94 522 q 100 536 108 536 q 146 536 181 504 q 216 473 216 447 q 216 385 184 269 q 249 383 302 456 q 356 528 393 528 z"},"h":{"x_min":0,"x_max":563,"ha":563,"o":"m 150 766 q 150 808 183 808 q 210 808 245 763 q 280 718 280 686 q 280 654 267 596 q 254 538 240 490 q 227 442 200 354 q 173 265 163 230 q 228 362 300 445 q 373 528 422 528 q 453 528 493 474 q 533 419 533 376 q 533 332 517 249 q 501 166 461 89 q 421 12 379 12 q 346 12 346 59 q 346 93 366 170 q 395 285 395 310 q 395 335 387 335 q 329 335 217 142 q 179 76 154 44 q 128 12 105 12 q 82 12 50 49 q 17 86 17 106 q 17 127 26 167 q 34 207 52 281 q 69 355 110 550 q 150 744 150 766 z"},"z":{"x_min":0,"x_max":480,"ha":480,"o":"m 173 139 l 391 147 q 412 147 428 138 q 444 128 444 109 q 444 62 355 36 q 266 11 134 11 q 86 11 43 54 q 0 97 0 124 q 0 152 51 194 q 102 236 162 272 q 223 307 274 340 q 325 372 325 383 q 325 394 271 394 q 217 394 183 388 q 149 382 128 382 q 107 382 80 416 q 53 451 53 471 q 53 499 104 514 q 154 528 216 528 q 278 528 351 511 q 384 502 414 460 q 445 418 445 395 q 445 353 402 306 q 358 260 306 229 q 254 198 210 172 q 167 147 167 142 q 167 139 173 139 z"},"B":{"x_min":0,"x_max":624,"ha":624,"o":"m 565 260 q 565 198 496 138 q 428 78 330 42 q 233 7 145 7 q 107 7 56 54 q 5 100 5 130 q 5 147 12 157 q 20 167 30 167 q 40 167 74 150 q 109 134 126 134 q 144 134 161 137 q 136 147 111 172 q 86 197 86 220 q 86 230 119 366 q 152 501 154 597 q 136 614 122 638 q 107 663 107 675 q 107 703 151 720 q 195 737 261 737 q 401 737 486 700 q 570 663 570 582 q 570 531 527 478 q 484 425 414 381 l 424 378 q 484 362 524 330 q 565 299 565 260 z m 388 609 q 357 609 242 587 q 278 547 278 520 q 278 494 261 423 q 277 435 318 458 q 359 481 370 488 q 380 496 398 511 q 432 538 432 574 q 432 609 388 609 z m 439 264 q 439 284 382 298 q 324 313 286 313 q 265 313 241 344 q 196 159 187 141 q 271 159 355 196 q 439 233 439 264 z"},"K":{"x_min":0,"x_max":602,"ha":602,"o":"m 119 13 l 117 13 q 95 13 62 54 q 29 94 29 124 q 29 155 88 398 q 146 641 146 705 q 146 745 175 745 q 199 745 233 698 q 267 650 267 607 q 267 581 241 474 q 323 583 395 656 q 467 730 494 730 q 520 730 547 708 q 574 685 574 668 q 574 652 523 604 q 472 556 397 482 q 322 408 281 344 q 281 267 370 189 q 397 166 442 142 q 487 117 512 100 q 538 82 538 64 q 538 13 466 13 q 394 13 311 72 q 228 130 187 227 q 161 153 155 120 q 149 86 146 75 q 144 64 142 58 q 140 51 138 43 q 136 35 134 30 q 132 26 130 22 q 124 13 119 13 z"},"R":{"x_min":0,"x_max":601,"ha":601,"o":"m 567 49 q 567 8 510 8 q 432 8 346 89 q 261 170 225 258 q 209 210 203 193 q 197 176 185 139 q 173 102 166 84 q 160 66 152 46 q 137 8 123 8 q 100 8 68 46 q 35 85 35 109 q 35 133 58 198 q 126 397 136 561 q 117 576 102 603 q 87 630 87 648 q 87 678 164 711 q 242 744 344 744 q 445 744 513 696 q 581 648 581 571 q 581 514 548 462 q 514 409 474 380 q 435 350 402 326 q 368 302 368 295 q 368 271 384 250 q 400 228 429 200 q 458 171 479 152 q 500 132 514 119 q 527 106 540 92 q 567 66 567 49 z m 427 561 q 427 603 345 603 q 306 603 252 581 q 277 543 277 511 q 277 453 261 383 q 272 391 302 412 q 332 432 348 444 q 365 457 386 477 q 427 516 427 561 z"},"T":{"x_min":0,"x_max":544,"ha":544,"o":"m 245 603 q 137 597 127 597 q 103 597 79 626 q 55 656 55 688 q 55 737 340 737 q 486 737 555 707 q 624 677 624 634 q 624 621 609 610 q 594 598 571 598 q 548 598 487 601 q 426 604 376 605 q 380 593 380 577 q 380 561 368 514 q 357 467 336 384 q 315 300 290 182 q 265 63 256 40 q 246 18 237 18 q 216 18 184 56 q 153 95 153 119 q 153 143 194 318 q 235 492 245 603 z"},"P":{"x_min":0,"x_max":549,"ha":549,"o":"m 109 18 q 86 18 54 56 q 22 95 22 119 q 22 143 46 218 q 120 448 125 621 q 91 657 91 678 q 91 711 170 740 q 248 770 319 770 q 439 770 508 714 q 578 658 578 571 q 578 460 470 370 q 361 280 196 247 q 149 78 134 48 q 120 18 109 18 z m 436 568 q 436 600 413 620 q 390 641 351 641 q 312 641 243 604 q 263 569 263 541 q 263 486 234 378 q 324 414 380 464 q 436 515 436 568 z"},"|":{"x_min":0,"x_max":456,"ha":456,"o":"m 187 -166 q 166 -166 130 -128 q 95 -90 95 -74 q 95 -58 173 366 q 251 791 251 845 q 251 875 281 875 q 305 875 347 831 q 389 787 389 750 q 389 732 382 698 q 375 663 370 640 q 366 617 356 571 q 346 525 342 504 q 337 483 298 279 q 211 -166 187 -166 z"},"t":{"x_min":0,"x_max":451,"ha":451,"o":"m 368 175 q 393 175 393 141 q 393 107 326 60 q 259 12 186 12 q 154 12 110 47 q 66 82 66 118 q 66 148 96 244 q 127 341 138 377 q 99 366 79 366 q 59 366 37 394 q 15 421 15 446 q 15 478 170 500 q 189 593 189 661 q 189 691 219 691 q 245 691 286 660 q 326 628 326 598 q 326 567 313 512 q 361 514 386 514 q 461 514 461 480 q 461 458 418 442 q 374 427 284 409 q 276 382 260 334 q 245 285 222 212 q 200 139 200 134 q 200 130 216 130 q 233 130 295 152 q 357 175 368 175 z"},"M":{"x_min":0,"x_max":756,"ha":756,"o":"m 179 745 q 198 745 254 704 q 309 664 309 644 q 309 609 332 529 q 355 449 385 384 q 415 419 486 514 q 558 608 607 663 q 656 718 680 718 q 704 718 730 691 q 756 664 756 637 q 756 610 748 568 q 740 525 730 488 q 721 452 704 389 q 686 326 676 290 q 667 253 657 212 q 647 170 642 146 q 636 123 630 98 q 623 72 618 58 q 613 45 607 34 q 596 13 576 13 q 556 13 536 52 q 517 92 517 135 q 517 241 578 416 q 561 394 529 352 q 497 309 482 290 q 466 270 443 244 q 402 199 363 199 q 311 199 289 240 q 278 261 260 334 q 241 408 233 436 q 220 333 198 249 q 176 165 169 139 q 162 113 150 76 q 130 13 114 13 q 96 13 64 60 q 33 108 33 135 q 33 162 92 405 q 150 648 150 712 q 150 745 179 745 z"},"g":{"x_min":0,"x_max":481,"ha":481,"o":"m 420 312 q 435 295 435 271 q 435 247 415 212 q 390 152 371 63 q 352 -26 334 -80 q 315 -133 294 -171 q 272 -209 235 -234 q 198 -259 150 -259 q 83 -259 30 -215 q -23 -171 -23 -140 q -23 -108 -6 -82 q 11 -57 26 -57 q 40 -57 54 -73 q 67 -89 78 -108 q 90 -126 109 -142 q 128 -158 151 -158 q 174 -158 193 -128 q 212 -98 222 -63 q 247 19 253 54 q 185 12 142 12 q 100 12 60 58 q 20 105 20 146 q 20 188 42 250 q 65 313 100 376 q 136 438 190 483 q 245 528 300 528 q 337 528 363 510 q 389 491 401 460 q 422 406 422 338 q 422 328 420 312 z m 143 151 q 143 138 154 138 q 183 138 248 191 q 313 244 335 296 l 335 315 q 335 380 323 394 q 317 401 307 401 q 259 401 201 300 q 143 199 143 151 z"},"j":{"x_min":0,"x_max":260,"ha":260,"o":"m -91 -149 q -59 -149 -24 -40 q 12 68 52 236 q 92 405 106 452 q 121 498 130 513 q 140 528 153 528 q 183 528 212 489 q 242 450 242 407 q 242 389 108 -71 q 80 -167 24 -212 q -32 -256 -106 -256 q -158 -256 -209 -213 q -260 -170 -260 -137 q -260 -114 -243 -86 q -226 -57 -209 -57 q -192 -57 -158 -98 q -149 -109 -147 -112 q -117 -149 -91 -149 z m 305 594 q 305 578 289 564 q 273 551 257 551 q 227 551 189 589 q 151 627 151 653 q 151 679 174 706 q 198 734 221 734 q 244 734 274 680 q 305 626 305 594 z"},"i":{"x_min":0,"x_max":260,"ha":260,"o":"m 228 551 q 199 551 161 589 q 123 627 123 653 q 123 679 146 706 q 170 734 192 734 q 215 734 246 680 q 277 626 277 602 q 277 577 261 564 q 245 551 228 551 z m 138 528 q 173 528 200 488 q 228 448 228 411 q 228 392 194 274 q 159 157 125 52 q 113 13 76 13 q 54 13 38 30 q 21 46 21 72 q 21 99 46 204 q 72 310 86 384 q 99 459 110 494 q 122 528 138 528 z"},"y":{"x_min":0,"x_max":520,"ha":520,"o":"m 398 503 q 404 528 431 528 q 458 528 486 494 q 515 460 515 417 q 515 392 497 338 q 479 284 472 261 q 464 238 450 198 q 436 159 424 126 q 413 92 394 36 q 374 -20 358 -68 q 327 -158 282 -207 q 238 -256 167 -256 q 96 -256 40 -218 q -16 -181 -16 -143 q -16 -120 4 -92 q 25 -64 40 -64 q 54 -64 78 -88 q 101 -111 126 -134 q 151 -158 170 -158 q 183 -158 192 -146 q 200 -134 206 -124 q 211 -115 217 -98 q 223 -82 228 -68 q 233 -54 240 -31 q 247 -8 252 10 q 269 64 281 106 q 248 63 213 38 q 178 12 148 12 q 119 12 76 56 q 32 101 32 154 q 32 208 56 298 q 79 388 114 458 q 149 528 176 528 q 207 528 234 502 q 262 475 262 450 q 262 426 238 372 q 213 318 188 254 q 163 190 163 145 q 163 139 168 139 q 181 139 223 188 q 265 236 318 326 q 370 415 398 503 z"},"@":{"x_min":0,"x_max":1078,"ha":1078,"o":"m 662 767 q 809 767 906 676 q 1004 586 1004 436 q 1004 362 970 292 q 937 222 888 176 q 840 129 787 101 q 734 73 693 73 q 620 73 600 155 q 505 62 447 62 q 405 62 355 110 q 305 157 305 203 q 305 249 345 326 q 385 403 456 468 q 526 532 596 532 q 639 532 692 486 q 745 440 745 386 q 745 362 728 331 q 752 307 752 286 q 752 265 744 239 q 737 213 737 211 q 737 209 740 209 q 744 209 757 218 q 770 228 789 248 q 808 267 826 292 q 843 317 855 354 q 867 390 867 428 q 867 528 811 581 q 755 634 663 634 q 571 634 483 590 q 395 546 334 477 q 272 408 234 323 q 197 238 197 150 q 197 61 239 12 q 281 -37 369 -37 q 457 -37 542 -16 q 627 5 634 5 q 657 5 657 -21 q 657 -58 610 -92 q 563 -127 500 -146 q 437 -165 386 -165 q 253 -165 150 -71 q 47 23 47 156 q 47 328 158 487 q 280 662 457 730 q 555 767 662 767 z m 439 182 q 468 182 540 237 q 612 292 626 360 q 627 365 633 371 q 618 406 603 406 q 569 406 526 362 q 483 317 455 268 q 427 219 427 200 q 427 182 439 182 z"},".":{"x_min":0,"x_max":237,"ha":237,"o":"m 144 -5 q 112 -5 72 34 q 33 73 33 102 q 33 130 58 158 q 83 187 108 187 q 134 187 166 131 q 198 75 198 46 q 198 31 180 13 q 161 -5 144 -5 z"},"p":{"x_min":0,"x_max":538,"ha":538,"o":"m 388 527 q 425 527 468 461 q 510 395 510 329 q 510 289 476 234 q 442 179 390 130 q 339 82 272 48 q 204 14 143 14 l 131 14 q 68 -248 42 -248 q 21 -248 -2 -213 q -26 -178 -26 -155 q -26 -132 3 -14 q 89 336 89 514 q 89 544 118 544 q 142 544 179 517 q 216 490 225 447 q 310 527 388 527 z m 350 394 q 308 394 261 346 q 242 326 219 287 q 196 248 179 196 l 162 133 q 240 148 310 219 q 379 290 379 342 q 379 394 350 394 z"},"X":{"x_min":0,"x_max":585,"ha":585,"o":"m 534 736 q 553 736 586 700 q 618 665 618 640 q 618 629 608 621 q 598 613 580 602 q 563 591 551 576 q 429 425 369 346 q 393 303 437 228 q 481 153 500 116 q 519 80 519 60 q 519 41 504 26 q 488 12 468 12 q 415 12 286 228 q 220 130 171 72 q 122 13 92 13 q 61 13 30 35 q -1 57 -1 77 q -1 88 4 93 q 18 107 22 113 q 108 211 213 361 q 156 471 119 566 q 82 662 82 704 q 82 747 100 747 q 142 747 188 730 q 235 712 235 689 q 235 617 297 484 q 396 638 445 687 q 494 736 534 736 z"},"*":{"x_min":0,"x_max":375,"ha":375,"o":"m 231 694 l 228 789 q 228 806 241 806 q 254 806 276 790 q 297 774 297 764 q 297 755 289 729 q 281 703 280 698 q 297 708 328 735 q 358 762 366 762 q 374 762 388 750 q 402 739 402 726 q 402 713 294 662 q 305 652 330 638 q 354 623 372 612 q 389 602 389 597 q 389 589 380 583 q 371 577 360 577 q 349 577 320 592 q 291 606 271 623 q 266 589 255 552 q 244 515 234 515 q 224 515 214 525 q 203 535 203 542 q 203 550 207 568 q 211 585 216 604 q 222 624 223 629 q 205 612 170 594 q 134 576 124 576 q 113 576 102 586 q 92 595 92 603 q 92 609 116 620 q 139 630 170 643 q 201 656 213 664 q 174 680 136 711 q 97 742 97 755 q 97 768 108 768 q 132 768 160 760 q 188 751 188 739 q 188 732 202 717 q 217 702 231 694 z"},"Y":{"x_min":0,"x_max":561,"ha":561,"o":"m 302 404 q 320 404 366 490 q 411 576 458 662 q 505 747 528 747 q 562 747 584 716 q 607 685 607 642 q 607 612 555 526 q 503 441 423 315 q 343 189 300 101 q 287 73 258 43 q 229 13 202 13 q 162 13 162 77 q 162 115 238 254 q 250 276 255 287 q 211 304 175 343 q 139 382 118 431 q 74 534 74 631 q 74 691 88 719 q 101 747 143 747 q 165 747 176 716 q 187 686 196 629 q 205 572 222 528 q 238 485 262 444 q 287 404 302 404 z"},"c":{"x_min":0,"x_max":489,"ha":489,"o":"m 25 169 q 25 239 69 323 q 113 407 184 467 q 256 527 325 527 q 360 527 397 482 q 434 436 434 400 q 434 374 410 374 q 398 374 377 385 q 356 396 334 396 q 312 396 272 358 q 231 321 200 268 q 168 216 168 186 q 168 156 180 147 q 191 138 236 138 q 280 138 316 146 q 353 154 370 162 q 388 171 402 171 q 430 171 430 147 q 430 103 353 58 q 276 12 199 12 q 150 12 88 66 q 25 121 25 169 z"},"!":{"x_min":0,"x_max":478,"ha":478,"o":"m 259 46 q 259 33 242 17 q 226 1 210 1 q 180 1 143 38 q 106 75 106 102 q 106 128 129 154 q 152 181 175 181 q 198 181 228 127 q 259 73 259 46 z m 209 794 q 209 823 240 823 q 271 823 322 779 q 374 735 374 715 q 374 649 328 442 q 281 236 247 236 q 220 236 194 264 q 168 292 167 322 q 165 333 175 386 q 185 440 197 552 q 209 663 209 794 z"},"/":{"x_min":0,"x_max":282,"ha":282,"o":"m 73 -80 q 51 -80 23 -45 q -5 -10 -5 18 q -5 46 52 198 q 110 350 190 550 q 270 749 284 789 q 298 829 300 835 q 305 851 309 852 q 318 857 325 857 q 345 857 383 809 q 421 761 421 729 q 421 699 400 645 q 378 591 361 552 q 289 385 252 293 q 98 -80 73 -80 z"},"[":{"x_min":0,"x_max":463,"ha":463,"o":"m 253 757 q 253 786 263 798 q 273 809 306 814 q 340 819 423 819 q 598 819 598 771 q 598 740 556 728 q 534 723 486 716 q 413 705 391 696 q 388 581 276 256 q 218 86 218 55 q 218 49 239 49 q 260 49 324 57 q 389 65 398 65 q 423 65 423 35 q 423 5 339 -38 q 255 -82 200 -82 q 146 -82 106 -48 q 65 -15 65 22 q 65 58 110 202 q 154 345 201 508 q 248 672 253 749 z"},"6":{"x_min":0,"x_max":542,"ha":542,"o":"m 474 689 q 474 677 449 644 q 424 610 371 547 q 318 484 287 444 q 376 433 444 389 q 512 345 512 288 q 512 232 462 168 q 411 104 330 60 q 250 17 176 17 q 101 17 57 64 q 13 110 13 176 q 13 243 60 343 q 106 443 167 530 q 228 616 289 679 q 350 742 380 742 q 410 742 442 726 q 474 709 474 689 z m 188 146 q 251 146 301 188 q 351 231 351 278 q 351 303 317 325 q 283 347 224 357 q 154 251 154 189 q 154 146 188 146 z"},"r":{"x_min":0,"x_max":362,"ha":362,"o":"m 80 359 l 74 472 q 74 528 109 528 q 129 528 148 513 q 168 498 178 466 q 212 496 252 514 q 293 533 324 533 q 397 533 397 498 q 397 480 390 472 q 384 463 380 459 q 377 455 368 448 q 360 442 356 439 q 333 424 323 418 q 278 390 246 350 q 214 311 198 241 q 171 126 146 70 q 120 13 88 13 q 57 13 42 43 q 26 73 26 100 q 26 126 46 179 q 65 232 72 270 q 80 309 80 359 z"},"2":{"x_min":0,"x_max":583,"ha":583,"o":"m 181 149 q 360 182 452 182 q 545 182 545 142 q 545 104 386 60 q 228 16 143 16 q 108 16 58 61 q 8 106 8 141 q 8 164 136 269 q 189 313 242 362 q 295 410 332 461 q 370 512 370 552 q 370 593 332 593 q 303 593 280 572 q 258 550 246 528 q 233 507 227 507 q 201 507 162 536 q 122 564 122 585 q 122 642 182 694 q 243 745 328 745 q 414 745 463 692 q 512 640 512 559 q 512 450 418 340 q 325 230 181 149 z"},"{":{"x_min":0,"x_max":462,"ha":462,"o":"m 156 426 q 198 426 198 469 q 198 489 185 519 q 145 611 145 695 q 145 779 202 830 q 258 880 347 880 q 409 880 456 834 q 503 788 504 732 q 504 713 480 679 q 455 645 437 645 q 421 645 418 665 q 415 683 415 720 q 415 760 364 760 q 276 760 276 649 q 277 585 298 524 q 320 463 320 441 q 320 398 290 362 q 260 327 209 320 l 209 309 q 209 271 184 198 q 159 126 159 72 q 159 38 184 24 q 209 10 255 10 q 301 10 320 0 q 338 -10 338 -38 q 338 -65 304 -90 q 269 -115 226 -115 q 145 -115 86 -58 q 27 -2 27 70 q 27 143 58 222 q 90 301 90 348 q 90 354 78 372 q 53 404 53 434 q 53 443 57 454 q 61 465 70 465 q 79 465 121 440 q 149 426 156 426 z"},"9":{"x_min":0,"x_max":506,"ha":506,"o":"m 499 495 q 499 465 474 429 q 444 356 433 322 q 422 288 397 192 q 372 97 354 47 q 336 -3 318 -3 q 273 -3 273 111 q 273 187 299 296 q 256 279 221 279 q 174 279 120 336 q 66 392 66 436 q 66 508 105 583 q 144 658 204 706 q 264 755 325 755 q 386 755 418 708 q 450 661 450 602 q 450 568 445 547 q 487 539 495 508 q 499 503 499 495 z m 329 509 l 333 577 q 333 595 326 612 q 319 628 311 628 q 287 628 237 556 q 187 484 187 435 q 187 420 200 407 q 214 394 233 394 q 252 394 278 410 q 303 427 317 442 q 331 457 357 487 q 329 493 329 509 z"}," ":{"x_min":0,"x_max":385,"ha":385,"o":""},"I":{"x_min":0,"x_max":309,"ha":309,"o":"m 151 712 q 153 745 182 745 q 206 745 246 697 q 286 649 286 607 q 286 589 258 472 q 231 354 222 308 q 212 261 205 224 q 198 188 194 167 q 166 39 150 20 q 144 13 138 13 q 118 13 84 54 q 50 96 50 115 q 50 134 100 394 q 149 653 151 712 z"},"H":{"x_min":0,"x_max":651,"ha":651,"o":"m 147 13 q 126 13 88 60 q 50 108 50 134 q 50 159 80 288 q 56 312 56 348 q 56 368 104 388 q 167 644 167 712 q 167 745 196 745 q 220 745 258 697 q 297 649 297 607 q 297 580 261 427 q 347 442 432 445 q 480 646 480 712 q 480 745 509 745 q 533 745 572 697 q 610 649 610 607 q 610 586 571 435 q 621 423 621 396 q 621 365 547 347 q 511 209 500 164 q 489 120 484 98 q 478 75 472 54 q 461 13 451 13 q 427 13 394 51 q 360 89 360 127 q 360 149 402 322 q 287 303 225 287 q 194 168 184 122 q 174 75 168 54 q 157 13 147 13 z"},"4":{"x_min":0,"x_max":545,"ha":545,"o":"m 418 579 q 443 579 486 542 q 528 505 528 481 q 528 423 457 202 q 386 -18 350 -18 q 331 -18 308 10 q 284 39 284 59 q 284 79 289 102 q 294 124 300 144 q 305 163 316 199 q 328 235 335 257 q 263 232 194 232 q 124 232 86 270 q 47 308 47 372 q 47 418 96 512 q 146 606 206 681 q 266 756 292 756 q 317 756 344 731 q 372 706 372 684 q 372 663 278 530 q 185 397 185 373 q 185 363 189 360 q 193 357 207 357 q 241 357 305 384 q 369 411 374 412 q 387 483 387 549 q 387 579 418 579 z"},"~":{"x_min":0,"x_max":586,"ha":586,"o":"m 72 270 q 72 325 123 382 q 174 440 229 440 q 286 440 319 405 q 333 390 344 374 q 373 333 389 326 q 403 333 418 359 q 432 385 450 406 q 468 426 496 426 q 538 426 538 374 q 538 321 492 263 q 445 205 406 205 q 367 205 325 242 q 283 278 254 336 q 231 326 215 306 q 199 285 192 266 q 185 247 170 232 q 154 218 131 218 q 72 218 72 270 z"},"D":{"x_min":0,"x_max":666,"ha":666,"o":"m 110 747 q 188 747 280 715 q 373 683 452 631 q 532 579 586 506 q 639 433 639 358 q 639 302 548 218 q 458 135 339 74 q 220 13 144 13 q 127 13 90 58 q 52 102 52 123 q 52 164 106 352 q 161 539 174 609 q 138 633 114 666 q 90 700 90 724 q 90 747 110 747 z m 495 386 q 495 418 436 470 q 377 523 299 558 q 293 483 214 237 q 210 224 202 194 q 193 165 189 155 q 287 188 391 266 q 495 345 495 386 z"},"^":{"x_min":0,"x_max":422,"ha":422,"o":"m 423 551 q 423 528 398 528 q 354 528 236 733 q 183 679 145 592 q 134 567 128 554 q 113 523 90 523 q 67 523 41 542 q 15 560 15 575 q 15 613 52 687 q 90 761 139 822 q 188 882 216 882 q 258 882 308 849 q 317 842 324 824 q 331 805 346 760 q 361 715 392 642 q 423 570 423 551 z"},"0":{"x_min":0,"x_max":513,"ha":513,"o":"m 376 521 q 376 616 349 616 q 332 616 304 580 q 276 545 248 492 q 220 438 200 366 q 180 294 180 230 q 180 134 212 134 q 239 134 278 200 q 317 267 346 360 q 376 454 376 521 z m 347 747 q 426 747 472 691 q 518 635 518 531 q 518 460 494 371 q 471 282 432 202 q 394 122 335 68 q 276 13 208 13 q 140 13 86 84 q 33 156 33 240 q 33 323 62 418 q 91 514 136 586 q 181 657 238 702 q 294 747 347 747 z"},"F":{"x_min":0,"x_max":542,"ha":542,"o":"m 592 667 q 592 652 580 646 q 569 639 560 636 q 552 632 538 629 q 523 626 511 624 q 499 621 480 619 q 460 617 446 616 q 432 614 409 612 q 386 609 367 607 q 348 605 267 592 l 267 591 q 267 555 236 400 q 249 399 284 399 q 318 399 374 404 q 430 410 448 410 q 465 410 477 401 q 489 392 489 381 q 489 354 457 333 q 425 312 377 300 q 281 276 208 274 q 178 147 172 118 q 165 90 158 64 q 145 13 134 13 q 113 13 77 60 q 41 107 41 130 q 41 170 90 384 q 140 598 143 653 l 143 661 q 143 674 146 683 q 157 716 210 725 q 263 734 370 734 q 478 734 535 716 q 592 699 592 667 z"},"`":{"x_min":0,"x_max":258,"ha":258,"o":"m 10 793 q 10 822 32 848 q 54 875 77 875 q 95 875 117 853 q 125 845 142 827 q 160 809 190 779 q 220 749 234 731 q 248 713 248 695 q 248 677 236 664 q 223 650 210 650 q 198 650 187 656 q 176 662 154 678 q 133 694 119 702 q 105 711 93 718 q 81 726 74 730 q 68 734 58 740 q 49 745 44 749 q 39 753 32 758 q 26 763 22 767 q 19 771 16 776 q 10 784 10 793 z"},"k":{"x_min":0,"x_max":493,"ha":493,"o":"m 118 12 q 95 12 60 49 q 26 86 26 108 q 26 114 60 227 q 93 340 126 499 q 160 658 160 777 q 160 808 188 808 q 212 808 252 764 q 291 721 291 683 q 291 628 252 475 q 212 322 173 234 q 186 251 208 280 q 231 308 245 326 q 259 344 280 370 q 300 396 314 412 q 328 429 345 450 q 362 470 374 482 q 387 495 400 506 q 424 528 437 528 q 462 528 492 494 q 522 461 522 436 q 522 426 480 390 q 437 354 394 310 q 352 266 352 232 q 352 197 372 164 q 393 132 417 115 q 441 98 462 80 q 482 63 482 51 q 482 12 429 12 q 366 12 262 118 l 238 142 q 148 12 118 12 z"},"u":{"x_min":0,"x_max":486,"ha":486,"o":"m 376 503 q 384 528 408 528 q 432 528 464 487 q 495 446 495 416 q 495 405 449 269 q 403 133 378 54 q 364 12 331 12 q 311 12 298 26 q 284 41 284 72 q 284 103 296 160 q 193 12 132 12 q 100 12 55 54 q 10 95 10 134 q 10 230 64 379 q 119 528 167 528 q 196 528 218 502 q 241 476 241 445 q 241 433 216 378 q 140 213 140 145 q 140 139 145 139 q 160 139 202 186 q 243 234 294 322 q 346 411 376 503 z"},"]":{"x_min":0,"x_max":521,"ha":521,"o":"m 498 714 l 498 702 q 496 600 470 470 q 445 341 432 282 q 420 222 399 129 q 378 36 374 17 q 361 -37 328 -58 q 294 -78 226 -78 q 158 -78 90 -44 q 22 -9 22 33 q 22 63 61 63 q 85 63 124 58 q 163 53 192 53 q 221 53 222 68 q 222 71 234 115 q 246 159 262 226 q 279 292 296 366 q 336 549 336 649 l 318 649 l 204 644 q 131 644 131 676 q 131 715 186 742 q 242 768 322 768 q 403 768 445 760 q 487 752 496 722 q 498 716 498 714 z"},"U":{"x_min":0,"x_max":595,"ha":595,"o":"m 170 747 q 195 747 234 711 q 272 675 272 640 q 272 606 236 462 q 200 318 200 264 q 200 209 214 180 q 227 151 252 151 q 276 151 309 186 q 342 222 372 278 q 403 335 424 414 q 444 492 444 560 q 444 627 438 668 q 431 709 431 717 q 431 748 457 748 q 489 748 540 694 q 590 640 590 566 q 590 491 564 394 q 538 298 494 212 q 450 126 382 69 q 315 12 244 12 q 174 12 117 86 q 60 160 60 237 q 60 314 80 416 q 100 517 120 598 q 140 679 140 713 q 140 747 170 747 z"},"o":{"x_min":0,"x_max":456,"ha":456,"o":"m 282 436 q 239 411 196 331 q 154 251 154 190 q 154 130 166 114 q 220 138 260 211 q 300 284 300 348 q 300 412 282 436 z m 155 12 q 100 12 60 61 q 20 110 20 180 q 20 305 98 417 q 175 529 251 529 q 327 529 379 476 q 431 422 431 346 q 431 271 395 193 q 359 115 294 64 q 229 12 155 12 z"},"N":{"x_min":0,"x_max":631,"ha":631,"o":"m 524 750 q 553 750 588 720 q 624 690 624 671 q 624 608 594 452 q 565 297 519 155 q 473 13 436 13 q 421 13 397 30 q 373 46 365 68 q 357 91 334 162 q 281 325 234 432 q 227 402 216 347 q 204 292 197 260 q 190 229 180 184 q 170 140 162 114 q 155 88 146 62 q 130 13 116 13 q 96 13 64 50 q 32 86 32 112 q 32 139 90 391 q 147 643 152 707 q 155 745 175 745 q 192 745 218 725 q 245 705 264 676 q 284 648 335 491 q 386 334 416 266 q 455 382 488 616 q 501 709 505 730 q 509 750 524 750 z"},"+":{"x_min":0,"x_max":600,"ha":600,"o":"m 281 572 q 281 604 310 604 q 341 604 387 562 q 433 521 433 498 q 433 476 416 398 q 479 401 516 401 q 633 401 633 372 q 633 309 389 282 l 386 267 q 357 144 344 108 q 332 71 315 71 q 292 71 262 100 q 232 130 232 158 q 232 160 253 271 q 181 267 131 267 q 100 267 78 296 q 55 326 55 354 q 55 381 86 381 q 158 381 251 390 l 271 391 q 281 478 281 572 z"},"G":{"x_min":0,"x_max":597,"ha":597,"o":"m 417 -82 q 403 -82 394 -74 q 384 -65 384 -52 q 384 20 424 154 q 377 94 322 57 q 266 20 208 20 q 149 20 85 71 q 21 122 21 183 q 21 291 85 422 q 149 554 247 647 q 345 740 432 740 q 462 740 494 693 q 527 646 527 607 q 527 589 514 589 q 512 589 495 593 q 478 597 453 597 q 386 597 316 528 q 246 460 202 360 q 158 260 158 172 q 158 146 192 146 q 239 146 308 188 q 376 230 413 282 q 391 281 360 281 q 328 281 302 300 q 277 319 277 340 q 277 361 325 374 q 373 387 429 387 q 485 387 514 342 q 544 297 544 242 q 544 187 498 52 q 451 -82 417 -82 z"},"q":{"x_min":0,"x_max":519,"ha":519,"o":"m 349 -64 q 396 -42 420 -42 q 445 -42 458 -57 q 472 -72 472 -86 q 472 -100 456 -114 q 440 -127 404 -150 q 369 -172 332 -200 q 296 -228 274 -242 q 253 -256 236 -256 q 220 -256 200 -227 q 181 -198 181 -174 q 181 -149 260 49 q 205 12 163 12 q 121 12 74 62 q 28 113 28 154 q 28 195 54 257 q 81 319 123 380 q 165 440 224 484 q 283 528 336 528 q 388 528 432 481 q 476 434 476 393 q 476 365 450 365 q 439 365 412 386 q 384 406 369 406 q 325 406 270 352 q 215 299 179 238 q 143 178 143 151 q 143 142 146 140 q 149 138 161 138 q 200 139 266 196 q 333 254 352 337 q 356 354 376 354 q 397 354 438 326 q 479 299 479 284 q 479 268 461 220 q 443 173 408 86 q 372 -2 349 -64 z"},"d":{"x_min":0,"x_max":539,"ha":539,"o":"m 452 808 q 476 808 515 764 q 554 721 554 683 q 554 664 519 525 q 484 386 477 357 q 397 12 360 12 q 339 12 313 37 q 287 62 287 86 q 287 91 288 94 q 188 12 144 12 q 101 12 60 58 q 20 105 20 143 q 20 181 30 228 q 41 274 63 326 q 85 378 114 424 q 142 469 182 498 q 223 528 266 528 q 330 528 371 463 q 425 700 423 778 q 423 808 452 808 z m 157 139 q 182 139 242 182 q 301 225 330 291 q 329 299 329 326 q 329 353 311 377 q 293 401 278 401 q 248 401 220 369 q 193 337 177 293 q 143 200 143 152 q 143 144 146 142 q 148 139 157 139 z"},"1":{"x_min":0,"x_max":302,"ha":302,"o":"m 297 648 q 297 585 279 506 q 261 428 245 367 q 229 306 216 249 q 204 192 196 156 q 187 121 176 84 q 154 13 128 13 q 105 13 76 42 q 46 72 46 96 q 46 120 68 206 q 90 292 112 432 q 135 571 135 722 q 135 751 164 751 q 194 751 246 709 q 297 667 297 648 z"},"5":{"x_min":0,"x_max":506,"ha":506,"o":"m 393 739 q 576 739 576 695 q 576 676 545 662 q 508 644 456 632 q 403 620 372 613 q 340 606 322 602 q 304 597 286 560 q 269 523 269 502 q 269 481 288 458 q 308 435 336 413 q 364 391 392 367 q 459 310 459 251 q 459 160 370 84 q 280 9 194 9 q 108 9 48 56 q -13 102 -13 161 q -13 180 -6 194 q 1 208 13 208 q 25 208 44 190 q 103 134 149 134 q 195 134 248 172 q 302 210 302 248 q 302 282 235 327 q 207 346 180 368 q 152 390 132 424 q 113 458 113 506 q 113 554 161 640 q 209 725 249 732 q 289 739 393 739 z"}}}
